<svg width="63" height="75" viewBox="0 0 63 75" fill="none" xmlns="http://www.w3.org/2000/svg">
<path d="M62.3251 45.4878C62.3251 54.2004 59.1473 61.0895 53.9194 66.0536C48.6914 71.0178 41.3108 73.8544 33.2127 74.2597C32.5976 74.2597 31.8801 74.2597 31.265 74.2597C22.5518 74.2597 14.7612 71.5243 9.12324 66.5602C3.38277 61.6973 0 54.5044 0 45.4878C0 27.3535 13.9411 0 31.1625 0C45.2062 0 57.0971 18.2357 60.9924 34.8504C61.8125 38.5988 62.3251 42.1446 62.3251 45.4878Z" fill="#3CC4FF"/>
<path d="M53.9195 66.0536C48.6916 71.0178 41.311 73.8544 33.2129 74.2597C22.757 71.7269 10.9686 66.9654 10.866 58.5567C10.661 43.4617 40.3884 42.3473 46.0264 58.5567C46.0264 58.5567 32.5978 44.0695 22.4495 52.8834C10.5585 63.217 41.9261 65.5471 53.9195 66.0536Z" fill="#1194CD"/>
<path d="M38.5433 33.2294C38.3383 32.6216 37.8257 32.2163 37.2107 32.115L34.1354 31.5072L32.5978 28.8731C32.2903 28.3666 31.7777 28.0627 31.1627 28.0627C30.5476 28.0627 30.0351 28.3666 29.7276 28.8731L28.19 31.5072L25.1147 32.115C24.4997 32.2163 23.9871 32.6216 23.7821 33.2294C23.5771 33.8373 23.6796 34.4451 24.1921 34.8504L26.3448 37.0792L26.0373 40.1184C25.9348 40.7263 26.2423 41.2329 26.7548 41.6381C27.2674 41.942 27.8824 42.0433 28.4975 41.8407L31.3677 40.625L34.238 41.8407C34.443 41.942 34.7505 41.942 34.9555 41.942C35.263 41.942 35.6731 41.8407 35.9806 41.6381C36.4931 41.3342 36.6981 40.7263 36.6981 40.1184L36.3906 37.0792L38.5433 34.8504C38.6458 34.3438 38.7483 33.736 38.5433 33.2294Z" fill="#1194CD"/>
<path d="M12.916 16.0069C15.3762 11.9545 18.349 8.71259 21.1167 10.2322C23.8844 11.7519 21.1167 15.6016 18.6565 19.654C16.1963 23.7064 15.0687 28.2653 12.301 26.8469C9.53325 25.4286 10.4558 20.1605 12.916 16.0069Z" fill="white"/>
<path d="M11.3266 32.6551C11.7515 31.03 10.9407 29.4175 9.51556 29.0535C8.09041 28.6895 6.59061 29.7119 6.16567 31.3371C5.74072 32.9622 6.55155 34.5748 7.9767 34.9387C9.40185 35.3027 10.9016 34.2803 11.3266 32.6551Z" fill="white"/>
<path opacity="0.05" d="M62.3251 45.4878C62.3251 54.2004 59.1473 61.0895 53.9194 66.0536C48.6915 71.0178 41.3109 73.8544 33.2127 74.2597C32.5977 74.2597 31.8801 74.2597 31.2651 74.2597C22.5519 74.2597 14.7612 71.5243 9.12329 66.5601C21.9368 69.5994 57.9172 74.361 61.095 34.8504C61.8125 38.5988 62.3251 42.1446 62.3251 45.4878Z" fill="black"/>
</svg>
