<svg width="86" height="159" viewBox="0 0 86 159" fill="none" xmlns="http://www.w3.org/2000/svg">
<path d="M43.5135 13.9957C39.6965 13.9957 36.5156 10.9421 36.5156 6.99783C36.5156 3.18083 39.5692 0 43.5135 0C47.3305 0 50.5113 3.0536 50.5113 6.99783C50.5113 10.9421 47.3305 13.9957 43.5135 13.9957Z" fill="#305C72"/>
<path d="M34.607 152.426L30.0266 158.024C-1.0183 132.704 -0.509368 103.313 6.234 82.0655C11.5778 65.1435 20.8658 53.438 21.1203 53.1835L23.9194 55.4737L26.7186 57.7639C26.5913 57.8912 18.0667 68.5788 13.1046 83.974C12.4684 85.8825 11.8323 87.9182 11.4506 90.0812C5.72506 114.256 13.6135 135.249 34.607 152.426Z" fill="#7EA0AA"/>
<path d="M85.5008 52.1657C85.5008 61.4537 66.4158 69.0877 42.7504 69.0877C19.085 69.0877 0 61.4537 0 52.1657C0 42.8776 8.77909 7.12506 42.7504 7.12506C75.5766 7.12506 85.5008 42.7504 85.5008 52.1657Z" fill="#3D6D7F"/>
<path d="M85.8633 51.8464C85.8633 52.6065 85.7365 53.2399 85.4829 54L71.3633 42C68.8633 2 25.1312 11.434 23.8633 11.814C29.1884 8.90027 35.5279 7 43.2621 7C75.9737 7 85.8633 42.5984 85.8633 51.8464Z" fill="#4E8191"/>
<path d="M26.7192 57.7639C26.592 57.8912 18.0674 68.5788 13.1053 83.974C10.5606 83.5923 8.27039 82.9561 6.10742 82.1927C11.5785 65.1435 20.8665 53.438 21.121 53.1835L23.9201 55.4737L26.7192 57.7639Z" fill="#5D8B9A"/>
<path d="M85.5008 52.1657C85.5008 61.5809 66.4158 69.0877 42.7504 69.0877C19.2122 69.0877 0 61.4537 0 52.1657C0 45.6768 9.41527 39.9513 23.2837 37.1522C23.4109 37.1522 23.5382 37.1522 23.7926 37.0249C29.5181 35.8798 36.007 35.2437 42.8776 35.2437C50.3844 35.2437 57.3822 36.0071 63.4894 37.4066C63.6167 37.4066 63.7439 37.4066 63.8711 37.5339C76.7217 40.333 85.5008 45.804 85.5008 52.1657Z" fill="#91BCBC"/>
<path d="M63.7434 37.4066C62.5983 47.5853 53.9464 55.4737 43.5133 55.4737C32.9529 55.4737 24.1738 47.3308 23.2832 37.0249C23.4104 37.0249 23.5377 37.0249 23.7921 36.8977C29.5176 35.7526 36.0065 35.1164 42.8771 35.1164C50.3839 35.1164 57.3817 35.8798 63.4889 37.2794C63.4889 37.2794 63.6162 37.4066 63.7434 37.4066Z" fill="#CBF7F4"/>
</svg>
