<svg width="122" height="121" viewBox="0 0 122 121" fill="none" xmlns="http://www.w3.org/2000/svg">
<path d="M121.3 120.7H0V0C0 0 18.3 10 20.6 34.9C20.7 35.6 20.7 36.3 20.8 37.1C20.8 37.1 27.1 11.4 50 4.3C53.1 3.3 56.4 2.7 60.1 2.6C75.8 1.9 64.2 28.8 55.1 46.1C50.9 54 47.3 59.9 47.1 60.3C47.6 59.9 59.4 48.7 71.7 43.3C78.7 40.2 85.9 39.1 91.3 42.8C101.3 49.7 85.3 66.7 71.7 76.6C67 80.1 62.6 82.7 59.7 83.7C66.1 81.5 105 68.9 108.4 83.6C110.7 93.5 78.9 102 78.9 102C78.9 102 119.6 106.5 121.3 120.7Z" fill="#065B30"/>
<path d="M55.0004 46.1C71.6004 1.39999 50.3004 4.39999 49.9004 4.39999C53.0004 3.39999 56.3004 2.79999 60.0004 2.69999C75.7004 1.99999 64.1004 28.8 55.0004 46.1Z" fill="#0D8043"/>
<path d="M20.6 34.9C15.9 18.4 0 13.1 0 13.1V0C0 0 18.3 10 20.6 34.9Z" fill="#0D8043"/>
<path d="M0 55.8C0 55.8 12.4 57.6 10.3 79.9C10.3 79.9 21.6 57.5 32.3 61C43 64.5 29.4 90 29.4 90C29.4 90 54.2 82.1 59.9 93.5C65.6 104.9 46.6 112 46.6 112C46.6 112 68.1 112.4 71.6 120.6H0V55.8Z" fill="#014C25"/>
<path d="M71.5996 76.6C102.3 38.7 71.5996 43.3 71.5996 43.3C78.5996 40.2 85.7996 39.1 91.1996 42.8C101.2 49.7 85.1996 66.6 71.5996 76.6Z" fill="#0D8043"/>
</svg>
