<svg width="122" height="121" viewBox="0 0 122 121" fill="none" xmlns="http://www.w3.org/2000/svg">
<path d="M0 120.7H121.3V0C121.3 0 103 10 100.7 34.9C100.6 35.6 100.6 36.3 100.5 37.1C100.5 37.1 94.2 11.4 71.3 4.3C68.2 3.3 64.9 2.7 61.2 2.6C45.5 1.9 57.1 28.8 66.2 46.1C70.4 54 74 59.9 74.2 60.3C73.7 59.9 61.9 48.7 49.6 43.3C42.6 40.2 35.4 39.1 30 42.8C20 49.7 36 66.7 49.6 76.6C54.3 80.1 58.7 82.7 61.6 83.7C55.2 81.5 16.3 68.9 12.9 83.6C10.6 93.5 42.4 102 42.4 102C42.4 102 1.7 106.5 0 120.7Z" fill="#065B30"/>
<path d="M66.2999 46.1C49.6999 1.3 70.9999 4.39999 71.3999 4.39999C68.2999 3.39999 64.9999 2.79999 61.2999 2.69999C45.5999 1.99999 57.1999 28.8 66.2999 46.1Z" fill="#0D8043"/>
<path d="M100.7 34.9C105.4 18.4 121.3 13 121.3 13V0C121.3 0 103 10 100.7 34.9Z" fill="#0D8043"/>
<path d="M121.3 55.8C121.3 55.8 108.9 57.6 111 79.9C111 79.9 99.7002 57.5 89.0002 61C78.2002 64.5 91.9002 90.1 91.9002 90.1C91.9002 90.1 67.1002 82.2 61.4002 93.6C55.7002 105 74.7002 112.1 74.7002 112.1C74.7002 112.1 53.2002 112.5 49.7002 120.7H121.3V55.8Z" fill="#014C25"/>
<path d="M49.7 76.6C19 38.7 49.7 43.3 49.7 43.3C42.7 40.2 35.5 39.1 30.1 42.8C20.1 49.7 36.1 66.6 49.7 76.6Z" fill="#0D8043"/>
</svg>
