<svg width="150" height="146" viewBox="0 0 150 146" fill="none" xmlns="http://www.w3.org/2000/svg">
<path opacity="0.1" d="M75 146C115.317 146 148 136.15 148 124C148 111.85 115.317 102 75 102C34.6832 102 2 111.85 2 124C2 136.15 34.6832 146 75 146Z" fill="black"/>
<path d="M82.6312 27.2356L93.2443 30.7697V105.339L90.0604 106.517L79.4473 28.5314C79.4473 28.4136 82.6312 27.1178 82.6312 27.2356Z" fill="#8C7353"/>
<path d="M79.4473 28.4136L90.0604 31.9477V106.517L79.4473 102.983C79.4473 102.983 79.4473 26.6466 79.4473 28.4136Z" fill="#6D533C"/>
<path d="M124.258 40.9007L134.871 44.4348V118.886L131.687 120.064L121.074 42.0787C121.074 42.0787 124.258 40.7829 124.258 40.9007Z" fill="#8C7353"/>
<path d="M121.074 42.0787L131.687 45.6127V120.064L121.074 116.53C121.074 116.53 121.074 40.3116 121.074 42.0787Z" fill="#6D533C"/>
<path d="M136.169 72.5895L110.579 86.8436L75.0844 75.1812L39.5894 86.8436L14 72.5895L75.0844 52.5631L136.169 72.5895Z" fill="#7A5D31"/>
<path d="M75.084 55.7437V65.6391L88.7631 60.2202L75.084 55.7437Z" fill="#7A5D31"/>
<path d="M75.0844 52.5631L14 72.5895L75.0844 92.7337L136.169 72.5895L75.0844 52.5631ZM23.6697 72.5895L75.0844 55.7438L126.499 72.5895L75.0844 89.5531L23.6697 72.5895Z" fill="#7A5D31"/>
<path d="M136.169 47.0264L110.579 63.1653L75.0844 51.5029L39.5894 63.1653L14 47.0264L75.0844 27L136.169 47.0264Z" fill="#6D533C"/>
<path d="M75.0844 27L14 47.0264L75.0844 67.1706L136.169 47.0264L75.0844 27ZM23.6697 47.0264L75.0844 30.1807L126.499 47.0264L75.0844 63.99L23.6697 47.0264Z" fill="#977441"/>
<path opacity="0.5" d="M75.084 30.1806V51.5029L93.9517 57.7464L126.499 47.0264L75.084 30.1806Z" fill="#5B4331"/>
<path d="M136.169 97.9171L110.579 112.171L75.0844 100.627L39.5894 112.171L14 97.9171L75.0844 78.0085L136.169 97.9171Z" fill="#7A5D31"/>
<path d="M75.0844 78.0085L14 97.9171L75.0844 118.061L136.169 97.9171L75.0844 78.0085ZM23.6697 98.0349L75.0844 81.1892L126.499 98.0349L75.0844 114.881L23.6697 98.0349Z" fill="#7A5D31"/>
<path d="M75.0844 67.1706V90.7311L47.844 81.7781L47.0186 81.1891L43.7167 80.3644L14 70.5869V47.0264L43.0092 56.5684L45.8393 56.9218L46.7827 57.8642L75.0844 67.1706Z" fill="#AD8B59"/>
<path d="M75.084 67.1706V90.7311L136.168 70.5869V47.0264L75.084 67.1706Z" fill="#977441"/>
<path d="M136.168 47.0264V70.5869L75.084 90.7311V81.1891L76.9708 67.4062L104.211 58.4532L105.39 57.1574L108.338 57.0396L126.381 51.1495L130.98 48.6756L136.168 47.0264Z" fill="#81653C"/>
<path d="M75.0844 92.7337V116.294L38.646 104.278L36.6413 103.336L35.1083 103.1L14 96.15V72.5895L39.2356 80.8356L41.2403 81.3069L42.0658 81.8959L43.363 82.2493L75.0844 92.7337Z" fill="#AD8B59"/>
<path d="M75.084 92.7337V116.294L136.168 96.15V72.5895L75.084 92.7337Z" fill="#977441"/>
<path d="M75.0844 118.179V141.739L14 121.477V97.917L75.0844 118.179Z" fill="#AD8B59"/>
<path d="M75.084 118.179V141.739L136.168 121.477V97.917L75.084 118.179Z" fill="#977441"/>
<path d="M136.168 72.5895V96.15L75.084 116.294L76.0274 99.4484L76.8528 96.3856L75.9094 93.2049L82.749 90.8489L87.7018 89.6708L91.1216 88.1394L111.522 80.7178L136.168 72.5895Z" fill="#81653C"/>
<path d="M136.168 97.917V121.477L75.084 141.739V120.064L81.4519 117.472L86.7584 116.294L90.8857 113.703L101.735 109.344L136.168 97.917Z" fill="#81653C"/>
<path d="M61.1693 62.5763L71.7824 66.1104V140.679L68.5985 141.857L57.9854 63.8721C57.9854 63.7543 61.1693 62.4585 61.1693 62.5763Z" fill="#977441"/>
<path d="M57.9854 63.7544L63.0561 65.2858L64.9428 67.9953V73.7676L65.6504 68.2309L65.5325 66.1104L68.8343 67.1706V87.7861L69.1881 89.3175L68.5985 90.6133V141.74L57.9854 138.206C57.9854 138.206 57.9854 61.9873 57.9854 63.7544Z" fill="#AD8B59"/>
<path d="M18.599 48.5578L29.2121 52.0919V126.661L26.0282 127.839L15.415 49.8536C15.533 49.618 18.599 48.3222 18.599 48.5578Z" fill="#977441"/>
<path d="M15.5332 49.6181L26.1463 53.1521V73.7676L27.0897 75.888L26.1463 80.0111V127.721L15.5332 124.187C15.5332 124.187 15.5332 47.9688 15.5332 49.6181Z" fill="#AD8B59"/>
<path d="M68.5986 141.74L71.7826 140.562V66.1104L68.5986 67.1706V87.7861L68.9524 89.3175L68.5986 90.6133V141.74Z" fill="#977441"/>
<path d="M26.1465 127.721L29.2125 126.543V52.0919L26.1465 53.1521V73.7676L26.9719 76.0058L26.1465 80.0111V127.721Z" fill="#977441"/>
<path d="M96.5469 97.2102L107.868 94.8542L114.825 91.6735L96.5469 97.2102Z" fill="#977441"/>
<path d="M84.7539 106.163L97.4896 102.983L103.032 100.509L84.7539 106.163Z" fill="#977441"/>
<path d="M96.5469 71.8827L99.6129 70.3512H101.146L103.151 69.6444L112.702 68.2308L106.335 69.6444L103.504 70.1156L100.792 71.5292L99.8487 71.058L96.5469 71.8827Z" fill="#8C7353"/>
<path opacity="0.2" d="M26.1463 73.7675L26.9717 76.0058L26.1463 80.011L25.7925 78.3618V76.5948L25.5566 75.1811L26.1463 73.7675Z" fill="#5B4331"/>
<path d="M18.2451 125.129L18.5989 118.179L19.0706 116.765V114.527L19.5423 117.001L19.3064 118.179L19.1885 125.365L18.2451 125.129Z" fill="#977441"/>
<path d="M21.3115 51.6207L22.3728 51.9741L21.6653 53.3878L21.5474 54.448L21.4294 52.7988L21.6653 52.4453L21.3115 51.6207Z" fill="#8C7353"/>
<path d="M20.25 125.836L21.1934 126.072L20.9575 124.658L20.7217 121.831L20.25 124.305V125.836Z" fill="#977441"/>
<path opacity="0.2" d="M60.9336 139.148L61.1694 136.321V132.904L61.7591 136.203L61.4053 137.145L61.7591 139.501L60.9336 139.148Z" fill="#5B4331"/>
<g clip-path="url(#clip0)">
<path d="M131.9 37.4C131.8 35.6 129 34.2 129 34.2C129 34.2 109.2 21.1 72.6995 19.8C35.5995 18.5 22.4995 27.5 22.4995 27.5C20.6995 29.9 19.5995 32.1 19.2995 34.2C18.9995 31.4 19.9995 28.3 22.5995 25C22.5995 25 35.6995 16 72.7995 17.3C109.3 18.6 129.1 31.7 129.1 31.7C129.1 31.7 132.3 34.2 131.9 37.4Z" fill="#CC9A36"/>
<path d="M129.5 42.1C129.4 40.3 129 39.1 129 39.1C129 39.1 109.2 26 72.6995 24.7C35.5995 23.4 22.4995 32.4 22.4995 32.4C20.6995 34.8 19.5995 37 19.2995 39.1C18.9995 36.3 19.9995 33.2 22.5995 29.9C22.5995 29.9 35.6995 20.9 72.7995 22.2C109.3 23.5 131.5 37.4 131.5 37.4C131.5 37.4 129.9 38.9 129.5 42.1Z" fill="#CC9A36"/>
<path d="M22.9003 35.5C22.9003 35.5 35.6003 23.9 57.1003 22.4C78.6003 20.9 119.5 32.8 127.9 39.4C136.3 46 108.6 56.2 82.2003 56.3C55.7003 56.5 22.7003 43.9 22.9003 35.5Z" fill="#CC9A36"/>
<path d="M22.9003 37.7C22.9003 37.7 35.6003 27.3 57.1003 26C78.6003 24.7 119.5 35.3 127.9 41.2C136.3 47.1 108.6 56.2 82.2003 56.3C55.8003 56.4 22.7003 45.2 22.9003 37.7Z" fill="#C18E33"/>
<path d="M44.1998 32.9C44.1998 32.9 72.0998 28 96.5998 36.1C96.5998 36.1 62.3998 31.8 41.1998 34.6C19.9998 37.4 44.1998 32.9 44.1998 32.9Z" fill="#CC9A36"/>
<path d="M59.3998 38.1C59.3998 38.1 87.5998 36.6 111 47.5C111 47.5 77.4998 39.1 56.0998 39.4C34.7998 39.7 59.3998 38.1 59.3998 38.1Z" fill="#CC9A36"/>
<path d="M113.7 34.4C112.8 34.8 111.9 35.3 110.8 35.7C103 31.9 89.4998 28.7 74.1998 28.5C58.1998 28.3 41.5998 32.6 33.8998 36.5C33.1998 36.2 32.8998 34.8 32.2998 34.5C39.3998 30 56.6998 26.1 74.1998 26.1C91.5998 26 106.7 29.9 113.7 34.4Z" fill="#93661D"/>
<path d="M117.7 40.3C116.8 40.8 114.8 40.7 113.8 41.1C105.9 37.4 89.3996 32.8 74.0996 32.9C58.0996 33 44.1996 36.5 36.5996 40.5C35.8996 40.2 35.1996 39.9 34.5996 39.6C41.5996 35 56.5996 30.8 73.9996 30.4C91.3996 30.1 110.6 36 117.7 40.3Z" fill="#93661D"/>
<path d="M34.5 40.6C35.4 41.1 36.3 41.5 37.4 41.9C45.3 38.2 58.8 35.3 74.1 35.4C90.1 35.5 104 39 111.6 43C112.3 42.7 113 42.4 113.6 42.1C106.6 37.5 91.6 33.3 74.2 32.9C56.8 32.6 41.7 36.3 34.5 40.6Z" fill="#93661D"/>
<path d="M34.5 42C35.4 42.5 36.3 42.9 37.4 43.3C48.9 46.2 58.8 47.4 74.1 47.5C90.1 47.6 96.5 46.3 111.6 44.4C112.3 44.1 113 43.8 113.6 43.5C106.6 38.9 97.3 28.6 74.2 28.6C54.1 28.7 41.7 37.7 34.5 42Z" fill="#845717"/>
<path d="M129.8 32C129.6 30.2 129.1 29 129.1 29C129.1 29 108.9 16.6 72.2998 16.6C35.1998 16.6 22.3998 26.1 22.3998 26.1C20.5998 28.5 19.6998 30.8 19.3998 32.9C18.9998 30.1 19.8998 27 22.3998 23.6C22.3998 23.6 35.1998 14.1 72.2998 14.1C108.8 14.1 129.1 26.5 129.1 26.5C129.1 26.5 130.1 28.8 129.8 32Z" fill="#CC9A36"/>
<path d="M133.2 37.9C133 36.1 132.5 34.9 132.5 34.9C132.5 34.9 111.7 22.5 74.0001 22.5C35.8001 22.5 22.6001 32 22.6001 32C20.8001 34.4 19.8001 36.7 19.5001 38.8C19.1001 36 20.0001 32.9 22.6001 29.5C22.6001 29.5 35.8001 20 74.0001 20C111.7 20 132.5 32.4 132.5 32.4C132.5 32.4 133.5 34.7 133.2 37.9Z" fill="#CC9A36"/>
<path d="M18.9999 38.8C19.0999 40.6 19.5999 41.8 19.5999 41.8C19.5999 41.8 39.4999 54.7 76.0999 55.6C113.2 56.5 126.2 47.3 126.2 47.3C128 44.9 129 42.7 129.3 40.6C129.6 43.4 128.7 46.5 126.1 49.8C126.1 49.8 113.1 59 75.9999 58.1C39.4999 57.2 19.4999 44.3 19.4999 44.3C19.4999 44.3 18.5999 42 18.9999 38.8Z" fill="#CC9A36"/>
<path d="M101.3 53C69.2995 57.6 16.9995 51.7 19.4995 32.9C21.8995 49.7 70.7995 54.8 101.3 50.5C124.4 47.2 129.2 38.1 129.8 32.1C130.3 37.6 128 49.2 101.3 53Z" fill="#C18E33"/>
<path d="M21.2005 15.6C21.2005 15.6 16.9005 15.2 15.8005 9.1C14.6005 3 14.5005 -1.1 16.0005 0.200001C17.5005 1.5 22.8005 5.3 23.4005 10.7C24.0005 16.1 22.1005 15.8 21.2005 15.6Z" fill="#00753A"/>
<path d="M29.2008 22.8C29.2008 22.7 29.2008 22.6 29.2008 22.5C29.2008 21.6 29.1008 20.7 28.3008 19.9C27.8008 19.4 27.1008 18.9 26.1008 18.4C25.6008 18 25.0008 17.6 24.4008 17C22.2008 14.7 20.5008 10.9 20.5008 10.9L20.0008 9.89999L19.7008 11C19.7008 11.1 19.1008 13.5 21.6008 17.1C22.4008 18.2 23.0008 19.1 23.6008 19.6C24.1008 20.1 24.5008 20.4 24.9008 20.7C25.2008 20.9 25.4008 21.1 25.7008 21.4C25.9008 21.6 26.1008 21.8 26.3008 22C27.5008 23.3 28.2008 23.9 28.8008 23.7C29.0008 23.5 29.2008 23.3 29.2008 22.8Z" fill="#CC9A36"/>
<path d="M15.6006 0.799988C15.6006 0.799988 19.7006 7.89999 20.6006 10.6C21.6006 13.2 22.9006 15.1 22.9006 14C23.0006 12.9 23.8006 6.39999 15.6006 0.799988Z" fill="#108C4B"/>
<path d="M113.7 49.8C113.7 49.8 105.6 59 86.7 60.8C67.7999 62.6 47.2 59.3 40 53.6C32.8 47.9 32.1 44.8 30.8 44.3C29.5 43.9 28.4 47.7 33.2 51.2C38 54.7 42.7 61.2 67.5 63.1C92.3 65 112.4 57.7 117 49.7C121.7 41.7 114.3 49.2 113.7 49.8Z" fill="#FFDA6B"/>
<path d="M27.2004 40.3C27.2004 40.3 24.5004 48.7 41.0004 53.7C57.5004 58.7 87.0004 57.8 102.4 54.5C117.7 51.2 109.5 54.2 105.6 55.5C101.8 56.8 69.1004 60.7 49.1004 57.9C29.2004 55 23.9004 44.5 24.0004 41.3C24.2004 38.1 27.3004 39.3 27.2004 40.3Z" fill="#93661D"/>
<path d="M20.8004 28.5C20.8004 28.5 15.1004 33.1 20.8004 37.8C26.5004 42.5 37.8004 50.8 66.6004 54.2C95.4004 57.5 113.8 51.2 116.1 48.9C118.4 46.6 117.3 49.8 115 51.5C112.8 53.2 90.7004 62.3 62.2004 56.1C33.7004 49.9 27.4004 47 19.8004 40.3C12.2004 33.6 18.7004 24.8 20.8004 28.5Z" fill="#DDAC3E"/>
<path d="M123.401 26.2C123.401 26.2 131.201 22.8 127.901 29.7C124.601 36.6 120.801 41.1 94.1005 45.9C67.4005 50.6 30.3005 44.9 24.4005 36.7C18.5005 28.6 22.2005 24.9 22.2005 24.9C22.2005 24.9 22.6005 23.6 20.8005 24.3C18.9005 25 15.8005 30.2 19.8005 36C23.9005 41.8 37.9005 47.4 58.5005 49.2C79.1005 51 105.401 48.6 117.201 43C129.001 37.4 134.401 30.4 131.801 25.7C129.201 21 125.801 24.2 120.001 22.6C118.301 22.1 121.701 26.1 123.401 26.2Z" fill="#DDAC3E"/>
<path d="M36.4999 53.9C36.4999 53.9 45.3999 62.8 65.3999 63.9C85.3999 65 107.1 60.9 114.4 55C121.7 49.1 122.4 45.9 123.8 45.4C125.2 44.9 126.5 48.7 121.6 52.4C116.7 56 112 62.7 85.7999 65.5C59.5999 68.3 38.0999 61.8 32.8999 53.9C27.6999 46 35.7999 53.3 36.4999 53.9Z" fill="#EFC55B"/>
<path d="M29.1998 44.6C29.0998 42.4 30.3998 42 30.7998 42C31.3998 41.9 32.0998 42.1 32.4998 42.5C32.7998 42.7 32.8998 43 32.8998 43.3V43.4C32.8998 43.4 33.3998 46 35.0998 48.5C36.5998 50.7 46.0998 56.3 54.3998 57.8C62.9998 59.4 76.0998 59.1 90.1998 56.9C99.2998 55.5 108.1 53.5 114.2 51.3C118.4 49.8 121.2 49 122.3 48.8C122.6 48.8 123.2 48.7 123.3 49.1C123.4 49.5 123.5 49.9 117.8 52.7C115.4 53.9 101.1 57.6 85.8998 59.9C76.6998 61.3 68.8998 61.9 62.6998 61.8C43.0998 61.1 29.4998 48.1 29.1998 44.6Z" fill="#DDAC3E"/>
<path d="M28.3 45.7C28.2 43.5 29.6 43.2 30 43.1C30.6 43 31.3 43.2 31.7 43.6C32 43.8 32.1 44.1 32.1 44.4V44.5C32.1 44.5 31.6 46.6 33.2 49.1C34.6 51.3 38.1 54.4 46.3 56.2C54.9 58 67.9 58.1 82.1 56.4C91.2 55.3 100 53.5 106.3 51.5C110.6 50.1 113.3 49.4 114.5 49.2C114.8 49.2 115.4 49.1 115.5 49.5C115.6 49.9 115.7 50.3 109.9 52.9C107.4 54 93 57.3 77.8 59.2C68.6 60.3 60.8 60.7 54.6 60.4C34.8 59.3 28.4 49.3 28.3 45.7Z" fill="#CC9A36"/>
<path d="M135.901 32C135.201 29.8 133.801 28.4 132.801 28.1C132.401 28 132.001 27.9 131.701 27.9C131.201 27.9 130.901 28.1 130.801 28.3C130.501 28.7 130.701 29.2 130.701 29.2V29.3L130.801 29.4C130.801 29.4 134.601 32.9 128.401 40.6C123.701 46.5 100.001 51.3 75.7006 51.3C67.3006 51.3 59.5006 50.7 52.5006 49.6C23.7006 45 19.4006 40.5 15.8006 33.7C14.9006 32.1 14.8006 30.8 15.3006 29.8C16.3006 28.1 19.6006 28 20.6006 28C20.9006 28 21.1006 28 21.1006 28C22.3006 28 23.2006 27.3 23.4006 26.5C23.5006 25.8 23.0006 25.2 22.1006 24.9C21.7006 24.8 21.0006 24.7 20.3006 24.7C17.3006 24.7 13.0006 26 10.8006 29.7C10.0006 31.1 9.80062 32.6 10.4006 34.3C11.8006 38.7 17.9006 43.5 27.0006 47.5C36.5006 51.6 55.7006 54.3 76.0006 54.3C81.4006 54.3 86.6006 54.1 91.5006 53.7C112.401 52.1 129.101 46.9 134.101 40.4C136.901 36.8 136.401 33.6 135.901 32Z" fill="#CC9A36"/>
<path d="M132.6 15.1C132.5 15 132.3 14.9 132.2 14.9C131.6 14.9 130.6 15.8 127.3 20.8C125.7 23.2 120.3 29 111.2 34.5C100.1 41.1 86.9004 44.9 73.2004 45.5C71.8004 45.6 70.5004 45.6 69.1004 45.6C39.6004 45.6 27.3004 32.5 24.9004 25.6C23.3004 20.9 22.3004 20.3 21.7004 20.3C20.7004 20.3 20.5004 21.9 20.4004 23.2C20.3004 24.3 21.7004 29 26.7004 34.2C32.9004 40.7 45.3004 48.5 68.7004 48.5C70.5004 48.5 72.4004 48.5 74.3004 48.4C97.5004 47 112 38.9 120 32.4C129 25.1 132.6 17.6 132.7 16.3C132.9 15.7 132.8 15.3 132.6 15.1Z" fill="#FFDA6B"/>
<path d="M16.8002 29.8C17.5002 27.8 20.6002 25.1 22.0002 25.1C22.7002 25.1 22.8002 26 23.2002 26.7L23.4002 27L23.1002 27.2C23.1002 27.2 19.4002 29.9 19.4002 32.5C19.4002 34 20.3002 35.4 22.0002 36.7C27.1002 40.5 39.1002 49.5 71.9002 53C77.8002 53.6 83.7002 53.9 89.3002 53.9C110.3 53.9 123.7 49.5 125.7 47.7C126.6 46.9 127 46.8 127.2 46.8C127.5 46.8 127.7 46.9 127.7 47.2C127.9 48 126.5 49.9 125 50.9C122.9 52.3 108.4 57.7 88.6002 57.7C81.3002 57.7 74.0002 57 66.9002 55.6C36.0002 49.5 28.9002 46.6 20.3002 39.7C15.3002 35.5 16.4002 31.1 16.8002 29.8Z" fill="#FFDA6B"/>
<path d="M22 21.8C22.1 22.4 22.3 22.9 22.5 23.5C22.7 24.1 22.9 24.6 23.2 25.1C23.7 26.2 24.3 27.2 24.9 28.2C26.2 30.2 27.7 31.9 29.5 33.5C31.2 35.1 33.1 36.5 35.1 37.7C37.1 38.9 39.2 40 41.3 40.9C45.6 42.7 50.1 44 54.7 44.9C55.9 45.1 57 45.3 58.2 45.5C59.4 45.7 60.5 45.8 61.7 45.9C64 46.1 66.4 46.2 68.7 46.2C73.4 46.2 78 45.8 82.7 45C87.3 44.2 91.9 43 96.3 41.5C98.5 40.8 100.7 39.9 102.9 39.1C105.1 38.2 107.2 37.3 109.3 36.2C111.4 35.2 113.5 34.1 115.5 32.9C116.5 32.3 117.5 31.7 118.5 31C119 30.7 119.5 30.3 120 30C120.5 29.7 120.9 29.3 121.4 28.9C121 29.3 120.5 29.7 120.1 30.1C119.6 30.5 119.2 30.8 118.7 31.2C117.7 31.9 116.8 32.6 115.8 33.2C113.8 34.5 111.8 35.6 109.7 36.8C105.5 39 101.2 40.9 96.7 42.5C94.5 43.3 92.2 44 89.9 44.6C87.6 45.2 85.3 45.7 83 46.2C78.3 47.1 73.6 47.5 68.9 47.5C64.2 47.5 59.4 47 54.8 46.1C52.5 45.6 50.2 45.1 47.9 44.4C45.6 43.7 43.4 42.9 41.2 41.9C39 40.9 36.9 39.8 34.9 38.5C32.9 37.2 31 35.8 29.3 34.1C27.6 32.4 26.1 30.6 24.9 28.6C24.3 27.6 23.7 26.5 23.3 25.4C23.1 24.9 22.9 24.3 22.7 23.7C22.2 23 22.1 22.4 22 21.8Z" fill="#EFC55B"/>
<path d="M73.4004 54.5C75.6004 54.9 77.8004 55.1 80.0004 55.3C82.2004 55.5 84.4004 55.6 86.7004 55.7C88.9004 55.8 91.2004 55.8 93.4004 55.8C95.6004 55.8 97.9004 55.7 100.1 55.6C102.3 55.5 104.6 55.3 106.8 55.1C109 54.8 111.2 54.5 113.4 54C114.5 53.7 115.6 53.5 116.6 53.2C117.7 52.9 118.7 52.5 119.8 52.2C120.8 51.8 121.9 51.4 122.9 50.9C123.9 50.4 124.9 49.9 125.8 49.3C125.3 49.6 124.8 49.8 124.3 50C123.8 50.2 123.3 50.4 122.8 50.6C121.8 51 120.7 51.3 119.7 51.7C118.6 52 117.6 52.3 116.5 52.6C115.4 52.9 114.3 53.1 113.3 53.3C112.8 53.4 112.2 53.5 111.7 53.6C111.2 53.7 110.6 53.8 110.1 53.9C109 54.1 107.9 54.2 106.8 54.3C105.7 54.4 104.6 54.5 103.5 54.6C102.4 54.7 101.3 54.7 100.2 54.8C98.0004 54.9 95.8004 55 93.6004 55C91.4004 55.1 89.2004 55.1 87.0004 55.1C84.8004 55.1 82.6004 55.1 80.3004 55C77.9004 54.7 75.6004 54.6 73.4004 54.5Z" fill="#EFC55B"/>
<path d="M124.9 24.3C124.6 24 124.4 23.8 124.5 23.4C124.6 22.4 124.3 15.9 123.6 14.7C123.5 14.6 123.3 14.2 122.9 14.2C122.4 14.2 122.2 14.7 122.1 15.7C122.1 15.7 122.7 19.7 122.4 21.9C122.3 22.4 122.2 23.1 122.1 23.7C121.8 25.5 121.5 27 122 27.7C122.2 27.9 122.4 28 122.7 28C124.4 28 125.1 26 125.2 25.4C125.4 24.8 125.1 24.5 124.9 24.3Z" fill="#FFDA6B"/>
<path d="M18.6002 30.5C18.6002 30.5 16.7002 34.4 10.6002 33.3C4.50019 32.3 0.600189 31 2.40019 30C4.10019 29 9.60019 25.4 14.8002 26.7C20.1002 28.1 19.2002 29.8 18.6002 30.5Z" fill="#00753A"/>
<path d="M26.4998 30.7C26.0998 29.8 24.6998 29.2 24.2998 29.1C23.5998 28.9 21.0998 28.7 18.7998 28.7C18.0998 28.7 17.3998 28.7 16.7998 28.7C13.9998 28.9 13.5998 29.8 13.4998 30L13.2998 30.5L13.8998 30.4C13.8998 30.4 14.4998 30.3 15.3998 30.3C16.6998 30.3 18.6998 30.4 20.5998 31L20.8998 31.1C22.8998 31.7 24.1998 32.1 24.9998 32.1C25.6998 32.1 26.0998 31.9 26.2998 31.4C26.5998 31.3 26.5998 31 26.4998 30.7Z" fill="#FFDA6B"/>
<path d="M100 55.7C99.9002 54.8 100.9 53.5 101.2 53.3C101.8 52.8 103.9 51.5 105.9 50.5C106.5 50.2 107.1 49.9 107.7 49.6C110.3 48.4 110.5 50.1 109.7 50.5C108.5 51.1 106.8 52.1 105.4 53.5L105.2 53.7C103.7 55.1 102.8 56.1 102 56.5C101.4 56.8 100.9 56.8 100.5 56.5C100.1 56.3 100 56.1 100 55.7Z" fill="#FFDA6B"/>
<path d="M134.2 51C134.2 51 137.4 53.8 142.6 50.5C147.8 47.2 150.9 44.5 148.9 44.3C146.9 44.1 140.5 42.9 136.2 46.1C131.9 49.3 133.4 50.5 134.2 51Z" fill="#00753A"/>
<path d="M123.501 50.2C123.601 50.1 123.701 50 123.801 50C124.501 49.4 125.101 48.8 126.301 48.8C127.001 48.8 127.801 49 128.901 49.3C129.501 49.5 130.201 49.6 131.001 49.6C134.201 49.6 138.101 48.3 138.101 48.2L139.201 47.8L138.601 48.8C138.501 48.9 137.201 50.9 132.801 51.6C131.501 51.8 130.401 51.9 129.601 51.9C128.801 51.9 128.401 51.8 128.001 51.7C127.701 51.6 127.401 51.6 126.901 51.6C126.601 51.6 126.301 51.6 126.001 51.6C124.201 51.6 123.301 51.5 123.101 51C123.101 50.8 123.101 50.5 123.501 50.2Z" fill="#FFDA6B"/>
<path d="M65.2006 55.8C65.2006 55.8 64.4006 60 70.0006 62.8C75.5006 65.6 79.4006 66.8 78.6006 65C77.8006 63.2 75.6006 57 70.5006 55C65.5006 52.9 65.2006 54.9 65.2006 55.8Z" fill="#00753A"/>
<path d="M51.2004 50C50.3004 48.6 47.4004 49.5 47.7004 50.3C47.7004 50.3 47.8004 51.8 50.2004 52.1C52.6004 52.5 62.9004 53.5 65.8004 55.5C68.7004 57.6 70.8004 59.8 70.8004 59.8C70.8004 59.8 68.5004 56 66.5004 55C64.5004 54 61.7004 53.1 63.2004 52.4C64.6004 51.7 77.2004 50.6 80.2004 48.6C83.3004 46.6 79.1004 48.9 77.8004 49C76.5004 49.2 64.4004 50.8 61.8004 50.8C59.2004 50.8 52.0004 51.3 51.2004 50Z" fill="#FFDA6B"/>
<path d="M26.5004 45.2C25.1004 44.5 24.4004 43.8 21.4004 45.6C18.5004 47.4 11.9004 46.7 11.9004 46.7C11.9004 46.7 13.6004 48.3 17.8004 48C22.1004 47.7 21.9004 47.1 23.5004 46.7C25.1004 46.3 27.6004 45.9 26.5004 45.2Z" fill="#EFC55B"/>
</g>
<defs>
<clipPath id="clip0">
<rect width="149.5" height="66.1" fill="white"/>
</clipPath>
</defs>
</svg>
