<svg width="225" height="119" viewBox="0 0 225 119" fill="none" xmlns="http://www.w3.org/2000/svg">
<path fill-rule="evenodd" clip-rule="evenodd" d="M55.7199 140.235L76.2254 82.5983C69.1474 81.021 60.1153 99.604 60.1153 99.604C60.1153 99.604 61.4262 83.0663 56.3031 82.4962C48.6987 81.6426 48.1481 102.243 48.1183 105.653C48.1303 104.107 47.6308 101.58 46.7516 98.7587C44.3164 90.6337 38.8915 80.1757 33.9014 83.7683C31.2192 85.7127 30.5281 89.3186 30.8272 93.1654C31.2866 99.3308 34.1294 106.11 34.7008 107.473C34.7551 107.603 34.7889 107.683 34.7982 107.71C34.7637 107.674 34.6305 107.517 34.4114 107.258C33.6301 106.334 31.7557 104.118 29.36 101.523C22.6253 94.2935 11.7224 84.2634 9.4031 91.8409C8.82545 93.6158 8.55452 95.2846 8.50868 96.9255C8.03278 108.999 19.2578 116.309 19.2578 116.309C19.0652 116.268 18.8876 116.219 18.716 116.171C18.5316 116.12 18.354 116.071 18.1719 116.035C5.87567 112.945 -2 119.961 -2 119.961L55.7199 140.235ZM156.184 140.235L137.178 92.6299C144.256 91.0525 151.789 99.604 151.789 99.604C151.789 99.604 150.478 83.0663 155.601 82.4962C163.205 81.6426 163.756 102.243 163.786 105.653C163.774 104.107 164.273 101.58 165.152 98.7587C167.588 90.6337 173.013 80.1757 178.003 83.7683C180.685 85.7127 181.376 89.3186 181.077 93.1654C180.617 99.3307 177.775 106.11 177.203 107.473C177.149 107.603 177.115 107.683 177.106 107.71C177.14 107.674 177.273 107.517 177.493 107.258C178.274 106.334 180.148 104.118 182.544 101.523C189.279 94.2935 200.182 84.2634 202.501 91.8409C203.079 93.6158 203.35 95.2846 203.395 96.9255C203.871 108.999 192.646 116.309 192.646 116.309C192.839 116.268 193.016 116.219 193.188 116.171C193.372 116.12 193.55 116.071 193.732 116.035C206.028 112.945 213.904 119.961 213.904 119.961L156.184 140.235Z" fill="#C4EFFF"/>
<path d="M86.2832 0H123.283L119.283 146.062H90.2832L86.2832 0Z" fill="url(#paint0_linear)"/>
<path d="M10.0117 18.9755L42.0547 0.593557L112.091 129.074L86.9758 143.481L10.0117 18.9755Z" fill="url(#paint1_linear)"/>
<path d="M202.839 18.9755L170.796 0.593557L100.76 129.074L125.875 143.481L202.839 18.9755Z" fill="url(#paint2_linear)"/>
<ellipse cx="7" cy="66.5718" rx="4" ry="3.97447" fill="white"/>
<ellipse cx="186.283" cy="70.5467" rx="4" ry="3.97447" fill="white"/>
<ellipse cx="27" cy="75.5153" rx="2" ry="1.98723" fill="white"/>
<ellipse cx="72.2832" cy="38.7513" rx="2" ry="1.98723" fill="white"/>
<ellipse cx="223" cy="91.4129" rx="2" ry="1.98723" fill="white"/>
<ellipse cx="1" cy="89.4253" rx="1" ry="0.993617" fill="white"/>
<ellipse cx="132" cy="48.687" rx="2" ry="1.98723" fill="white"/>
<defs>
<linearGradient id="paint0_linear" x1="104.783" y1="0" x2="104.783" y2="146.062" gradientUnits="userSpaceOnUse">
<stop stop-color="white" stop-opacity="0"/>
<stop offset="1" stop-color="white"/>
</linearGradient>
<linearGradient id="paint1_linear" x1="26.0332" y1="9.78451" x2="98.8294" y2="136.681" gradientUnits="userSpaceOnUse">
<stop stop-color="white" stop-opacity="0"/>
<stop offset="1" stop-color="white"/>
</linearGradient>
<linearGradient id="paint2_linear" x1="186.817" y1="9.78451" x2="114.021" y2="136.681" gradientUnits="userSpaceOnUse">
<stop stop-color="white" stop-opacity="0"/>
<stop offset="1" stop-color="white"/>
</linearGradient>
</defs>
</svg>
